PathFileType	4	(X/Y/Z)	../Python\walking\Walking21\task.trc
DataRate	CameraRate	NumFrames	NumMarkers	Units	OrigDataRate	OrigDataStartFrame	OrigNumFrames
200.000000	200.000000	4	30	mm	200.000000	355	474
Frame#	Time	CLAV			STRN			RASI			LASI			PE01			RTH1			RTH2			RTH3			RTB1			RTB3			RHEE			RD5M			RTOE			LTH2			LTH3			LTB1			LTB2			LTB3			LHEE			LTOE			LD5M			RBAK			LTH1			RTB2			C7			PE03			LPSI			PE02			RPSI			T10			
		X1	Y1	Z1	X2	Y2	Z2	X3	Y3	Z3	X4	Y4	Z4	X5	Y5	Z5	X6	Y6	Z6	X7	Y7	Z7	X8	Y8	Z8	X9	Y9	Z9	X10	Y10	Z10	X11	Y11	Z11	X12	Y12	Z12	X13	Y13	Z13	X14	Y14	Z14	X15	Y15	Z15	X16	Y16	Z16	X17	Y17	Z17	X18	Y18	Z18	X19	Y19	Z19	X20	Y20	Z20	X21	Y21	Z21	X22	Y22	Z22	X23	Y23	Z23	X24	Y24	Z24	X25	Y25	Z25	X26	Y26	Z26	X27	Y27	Z27	X28	Y28	Z28	X29	Y29	Z29	X30	Y30	Z30	

356	1.775	1030.0634765625	1267.049194335938	125.0155181884766	1094.610717773438	1082.250854492188	133.5992584228516	1049.847290039063	871.5261840820317	261.2503967285157	1064.854614257813	885.2229003906255	35.55132293701173	860.8525390625005	956.5374145507817	152.9004211425782	1012.580261230469	576.597595214844	297.6202087402345	1042.725341796875	503.5523681640627	287.743133544922	1060.729614257813	562.6547851562502	292.4979248046876	950.913940429688	324.0716247558595	263.7847900390626	886.355346679688	279.3906250000001	247.1851348876954	711.2011718750002	220.6808624267579	146.4831695556641	753.2138671875002	93.44621276855472	235.0196990966798	785.448120117188	69.09746551513675	196.0390167236329	1013.906433105469	562.3114013671877	5.510447502136232	1081.356201171875	605.4353027343752	4.798518657684328	1010.108520507813	288.5946044921876	14.43295764923096	1000.420288085938	210.3014068603517	24.86681175231935	1041.252685546875	237.9240570068361	30.65757369995119	957.5534667968755	35.4992141723633	79.04960632324222	1149.026000976563	30.89585876464845	97.45348358154303	1111.0712890625	15.80289554595948	42.59314727783205	860.8001098632817	1260.461059570313	241.4886474609376	1034.953735351563	619.284851074219	-7.093977451324466	889.3182983398442	328.4775390625001	257.0982055664064	902.107055664063	1355.891845703125	131.3753051757813	847.939331054688	900.7255859375005	117.6251068115235	859.7808227539067	924.0964965820317	106.3957977294922	844.9082641601567	894.181274414063	167.5518493652344	856.2246093750005	918.434204101563	193.7609405517579	880.1960449218755	1059.09814453125	147.7920989990235	
357	1.78	1036.418701171875	1267.888671875	125.5229797363282	1100.712280273438	1083.004028320313	134.1026916503907	1055.704345703125	872.7258300781255	260.888397216797	1071.046264648438	885.748657226563	35.17362594604494	866.8258666992192	957.382446289063	152.0337219238282	1022.704040527344	578.0316162109377	297.3906555175782	1054.091186523438	505.4731750488284	287.5364074707032	1071.099365234375	564.8762817382815	292.4165344238282	964.9323730468755	324.8389892578126	262.9965820312501	900.9120483398442	279.3780822753907	246.3162231445314	725.2952880859377	217.3587646484376	145.8327789306641	772.7745971679692	91.83391571044925	234.5312347412111	805.7517089843755	68.66350555419925	195.5299530029298	1017.300476074219	562.7463378906252	5.372104167938234	1085.226928710938	605.1721801757815	5.147225856781008	1011.028198242188	288.6737365722657	14.46491718292237	1001.047485351563	210.424041748047	24.89488410949708	1041.936889648438	237.9214324951173	30.64345550537111	957.5648803710942	35.59809494018556	79.16993713378909	1149.078002929688	30.86960411071779	97.48448944091803	1111.0732421875	15.81188488006593	42.60461807250978	866.653198242188	1261.196166992188	240.912078857422	1038.982055664063	619.504333496094	-7.073109149932865	903.2622070312505	328.4605712890626	256.5410461425782	908.533081054688	1356.800170898438	131.3049621582032	853.9386596679692	901.4638671875005	116.9508895874024	865.8408203125005	924.9231567382817	105.5659103393555	850.8371582031255	895.1069335937505	166.9010772705079	862.073608398438	919.334594726563	192.9084777832032	886.3750610351567	1060.013671875	146.7782897949219	
358	1.785	1042.75341796875	1268.662231445313	126.0379257202149	1106.78955078125	1083.696899414063	134.5982208251954	1061.567626953125	873.8820800781255	260.5098876953126	1077.2294921875	886.235229492188	34.7903175354004	872.792358398438	958.1664428710942	151.1885070800782	1032.7392578125	579.4749145507815	297.1381225585939	1065.336059570313	507.4170532226565	287.2903442382814	1081.362426757813	567.0975341796877	292.3058166503907	979.014770507813	325.4578552246095	262.1829223632814	915.6176757812505	279.1105957031251	245.4383850097657	739.7012329101565	213.6584014892579	145.2554168701172	792.530883789063	90.02414703369143	234.0325317382814	826.2302246093755	68.08052825927737	195.0068359375001	1020.714172363282	563.1465454101565	5.291331291198732	1089.107299804688	604.857604980469	5.550180435180666	1011.90380859375	288.751434326172	14.5251750946045	1001.64453125	210.5476837158204	24.95511054992677	1042.5947265625	237.9244232177736	30.66580009460451	957.575317382813	35.69641494750978	79.3017501831055	1149.131103515625	30.84448623657228	97.52507019042974	1111.07470703125	15.83069324493409	42.62541961669923	872.4924316406255	1261.865966796875	240.3416595458986	1043.031860351563	619.6854248046877	-6.999080657958988	917.2790527343755	328.1687622070314	256.0518493652345	914.9399414062505	1357.643310546875	131.2461395263672	859.939331054688	902.1284790039067	116.3130798339844	871.8961791992192	925.6769409179692	104.7661514282227	856.7722778320317	895.9675903320317	166.2902069091797	867.935424804688	920.1807250976567	192.0997314453126	892.5421752929692	1060.86376953125	145.7862548828126	
359	1.79	1049.068969726563	1269.3671875	126.557731628418	1112.84521484375	1084.327270507813	135.083236694336	1067.439086914063	874.9895629882817	260.1154785156251	1083.40625	886.6787109375005	34.40299224853517	878.7544555664067	958.8857421875005	150.3681030273438	1042.671630859375	580.9172973632815	296.8616027832032	1076.441772460938	509.3725280761721	287.0054931640626	1091.504516601563	569.3057861328127	292.1690979003907	993.1557617187505	325.9230346679689	261.3463745117189	930.4660034179692	278.591766357422	244.5520782470704	754.4207763671877	209.5902862548829	144.7494354248047	812.478637695313	88.03608703613284	233.5296020507814	846.871948242188	67.36411285400393	194.4698638916017	1024.136474609375	563.5109863281252	5.261829376220705	1092.98486328125	604.491882324219	5.994040489196779	1012.726501464844	288.8283691406251	14.60407066345216	1002.20361328125	210.6723937988282	25.04010391235353	1043.22021484375	237.9323120117189	30.7151279449463	957.5846557617192	35.79405593872072	79.44245147705081	1149.184448242188	30.81968879699708	97.57350921630865	1111.075439453125	15.85739326477051	42.65443801879884	878.320190429688	1262.467407226563	239.7777862548829	1047.090209960938	619.8275146484377	-6.878904819488529	931.3679809570317	327.600311279297	255.6342926025392	921.3286132812505	1358.418334960938	131.1982421875001	865.9433593750005	902.716918945313	115.7130279541016	877.949340820313	926.3557128906255	103.9984436035157	862.7160034179692	896.7592163085942	165.7201080322266	873.8126831054692	920.9680175781255	191.3365020751954	898.6996459960942	1061.644775390625	144.8182220458985	
